<?xml version="1.0" encoding="UTF-8"?><svg id="Capa_2" xmlns="http://www.w3.org/2000/svg" viewBox="0 0 3840 2541.09"><g id="Capa_1-2"><g id="iSotipo"><path d="M1663.26,1339.86c2.12,21.29,3.31,42.86,3.31,64.73,0,337.85-259.72,612.71-578.98,612.71s-579-274.87-579-612.71c0-21.87,1.19-43.44,3.31-64.73H1.88c-1.16,21.44-1.88,42.99-1.88,64.73,0,626.67,487.91,1136.5,1087.59,1136.5s1087.58-509.83,1087.58-1136.5c0-21.74-.73-43.29-1.88-64.73h-510.03Z" fill="#1057ee"/><path d="M2176.74,1201.23c-2.12-21.29-3.31-42.86-3.31-64.73,0-337.85,259.72-612.71,578.98-612.71s579,274.87,579,612.71c0,21.87-1.19,43.44-3.31,64.73h510.02c1.16-21.44,1.88-42.99,1.88-64.73C3840,509.83,3352.09,0,2752.41,0S1664.83,509.83,1664.83,1136.5c0,21.74,.73,43.29,1.88,64.73h510.03Z" fill="#1057ee"/></g></g></svg>